# xmcd CD database file
#
# Track frame offsets:
#	150
#	20717
#	39830
#	58530
#	74191
#	92609
#	112353
#	131241
#
# Disc length: 2020 seconds
#
# Revision: 0
# Processed by: cddbd v1.5.1PL0 Copyright (c) Steve Scherf et al.
# Submitted via: CDex 1.51
#
DISCID=7807e208
DTITLE=Freeman L. Semons, Jr. - Touch
DYEAR=2004
DGENRE=Jazz
TTITLE0=Freeman L. Semons, Jr. - Touch - 01 - One Heart
TTITLE1=Freeman L. Semons, Jr. - Touch - 02 - The Flow
TTITLE2=Freeman L. Semons, Jr. - Touch - 03 - Peace and Joy
TTITLE3=Freeman L. Semons, Jr. - Touch - 04 - Love For Every Season
TTITLE4=Freeman L. Semons, Jr. - Touch - 05 - For You
TTITLE5=Freeman L. Semons, Jr. - Touch - 06 - Let's Work It Out
TTITLE6=Freeman L. Semons, Jr. - Touch - 07 - Touch
TTITLE7=Freeman L. Semons, Jr. - Touch - 08 - Morning, Noon and Night
EXTD=YEAR: 2004
EXTT0=
EXTT1=
EXTT2=
EXTT3=
EXTT4=
EXTT5=
EXTT6=
EXTT7=
PLAYORDER=
